<svg width="259.1" height="47.8" viewBox="0 0 259.1 47.8" xmlns="http://www.w3.org/2000/svg"><g id="svgGroup" stroke-linecap="round" fill-rule="evenodd" font-size="9pt" stroke="#000" stroke-width="0.25mm" fill="#000" >
<path d="M 116.368 34.371 A 3.898 3.898 0 0 0 117.35 34.5 A 8.469 8.469 0 0 0 117.69 34.494 Q 118.415 34.464 119.035 34.309 A 4.538 4.538 0 0 0 120.6 33.6 Q 121.149 33.205 121.457 32.771 A 1.99 1.99 0 0 0 121.85 31.6 A 1.868 1.868 0 0 0 121.556 30.605 A 2.794 2.794 0 0 0 121.15 30.1 Q 120.15 29.15 119.825 27.825 A 9.285 9.285 0 0 1 119.76 27.541 Q 119.627 26.915 119.562 26.2 A 16.04 16.04 0 0 1 119.5 24.75 A 41.92 41.92 0 0 1 119.556 22.638 A 57.179 57.179 0 0 1 119.725 20.3 Q 119.95 17.85 120.25 15.35 A 124.928 124.928 0 0 0 120.397 14.188 Q 120.605 12.472 120.742 10.926 A 71.881 71.881 0 0 0 120.95 7.9 A 18.835 18.835 0 0 1 122.504 7.516 A 15.412 15.412 0 0 1 125.55 7.2 A 10.611 10.611 0 0 1 127.608 7.39 A 7.58 7.58 0 0 1 130.125 8.35 A 3.701 3.701 0 0 1 131.803 10.521 A 5.219 5.219 0 0 1 132 12 A 6.172 6.172 0 0 1 131.992 12.32 A 4.711 4.711 0 0 1 130.35 15.75 A 5.626 5.626 0 0 1 127.932 16.988 A 7.904 7.904 0 0 1 126.05 17.2 Q 125.066 17.2 124.415 17.274 A 5.53 5.53 0 0 0 123.925 17.35 A 3.346 3.346 0 0 0 123.786 17.382 Q 123.518 17.45 123.299 17.554 A 1.786 1.786 0 0 0 122.8 17.9 A 1.811 1.811 0 0 0 122.355 18.614 A 2.15 2.15 0 0 0 122.25 19.3 A 3.415 3.415 0 0 0 122.262 19.583 A 3.864 3.864 0 0 0 122.4 20.325 A 14.653 14.653 0 0 0 122.439 20.457 A 16.266 16.266 0 0 0 122.75 21.4 Q 123.55 23.3 124.725 25.55 Q 125.9 27.8 127.4 29.825 A 17.907 17.907 0 0 0 128.464 31.132 A 14.47 14.47 0 0 0 130.675 33.15 Q 132.45 34.45 134.4 34.45 A 7.323 7.323 0 0 0 135.065 34.421 Q 136.251 34.313 137 33.8 A 4.365 4.365 0 0 0 137.256 33.611 A 3.534 3.534 0 0 0 138.35 32.175 A 5.824 5.824 0 0 0 138.516 31.72 A 4.856 4.856 0 0 0 138.75 30.25 Q 138.75 29.682 138.636 29.378 A 0.714 0.714 0 0 0 138.525 29.175 A 0.773 0.773 0 0 0 138.404 29.055 Q 138.26 28.943 138.091 28.943 A 0.55 0.55 0 0 0 138 28.95 A 5.989 5.989 0 0 1 137.827 28.976 Q 137.561 29.013 137.259 29.031 A 10.828 10.828 0 0 1 136.6 29.05 Q 133.65 29.05 130.8 26.1 A 21.382 21.382 0 0 1 130.091 25.315 A 25.601 25.601 0 0 1 128.925 23.85 Q 128 22.6 127.2 21.35 A 10.932 10.932 0 0 0 129.111 20.77 A 13.284 13.284 0 0 0 131.525 19.475 Q 133.65 18.05 135.025 15.8 Q 136.4 13.55 136.4 10.65 A 10.327 10.327 0 0 0 136.287 9.098 A 7.823 7.823 0 0 0 135.05 5.85 A 8.341 8.341 0 0 0 133.724 4.323 A 9.467 9.467 0 0 0 131.3 2.75 Q 128.9 1.65 125.8 1.65 A 17.898 17.898 0 0 0 124.191 1.724 A 21.613 21.613 0 0 0 121.375 2.175 Q 119.05 2.7 117 3.85 Q 115.45 4.65 114.675 5.625 A 3.143 3.143 0 0 0 114.447 5.954 Q 114.134 6.47 114 7.131 A 5.388 5.388 0 0 0 113.9 8.2 A 5.47 5.47 0 0 0 113.901 8.287 Q 113.911 8.933 114.075 9.425 A 1.035 1.035 0 0 0 114.164 9.625 Q 114.274 9.811 114.451 9.891 A 0.72 0.72 0 0 0 114.75 9.95 A 1.297 1.297 0 0 0 114.94 9.935 Q 115.131 9.907 115.375 9.825 A 5.926 5.926 0 0 0 115.689 9.711 A 4.631 4.631 0 0 0 116.05 9.55 A 20.496 20.496 0 0 1 116.119 10.082 A 23.164 23.164 0 0 1 116.25 11.75 Q 116.3 12.9 116.3 13.95 Q 116.3 16.9 115.975 19.9 A 125.239 125.239 0 0 1 115.631 22.775 A 96.281 96.281 0 0 1 115.25 25.4 Q 115.05 26.9 114.875 28.475 Q 114.76 29.509 114.721 30.295 A 15.151 15.151 0 0 0 114.7 31.05 Q 114.7 32.104 114.885 32.788 A 2.682 2.682 0 0 0 115.1 33.35 Q 115.266 33.661 115.47 33.877 A 1.541 1.541 0 0 0 116.125 34.3 A 4.539 4.539 0 0 0 116.368 34.371 Z M 76.499 47.542 A 6.398 6.398 0 0 0 78.35 47.8 A 8.105 8.105 0 0 0 80.084 47.614 A 8.858 8.858 0 0 0 82.85 46.475 A 14.303 14.303 0 0 0 84.155 45.567 A 16.283 16.283 0 0 0 86.75 43 A 32.201 32.201 0 0 0 88.501 40.699 A 40.967 40.967 0 0 0 90.625 37.275 Q 92.45 34 93.875 30.5 A 71.288 71.288 0 0 0 94.87 27.917 A 58.82 58.82 0 0 0 96.2 23.8 A 57.231 57.231 0 0 0 96.589 22.347 Q 97.17 20.049 97.4 18.25 A 8.297 8.297 0 0 0 97.42 18.109 Q 97.629 16.491 97.15 15.125 A 2.83 2.83 0 0 0 96.999 14.771 Q 96.643 14.077 95.971 13.833 A 2.394 2.394 0 0 0 95.15 13.7 A 3.347 3.347 0 0 0 94.639 13.741 Q 94.296 13.794 93.916 13.916 A 7.24 7.24 0 0 0 93.175 14.2 A 7.883 7.883 0 0 0 92.568 14.501 A 6.522 6.522 0 0 0 91.25 15.45 Q 90.938 15.743 90.747 16.051 A 1.874 1.874 0 0 0 90.45 17.05 Q 90.45 17.55 90.75 17.925 A 32.537 32.537 0 0 0 90.816 18.007 Q 91.103 18.364 91.55 18.9 Q 92.15 19.5 92.4 20.3 A 5.262 5.262 0 0 1 92.584 21.122 A 6.877 6.877 0 0 1 92.65 22.1 Q 92.65 23.85 91.725 25.45 Q 90.8 27.05 89.35 28.05 A 6.454 6.454 0 0 1 88.893 28.338 A 5.147 5.147 0 0 1 86.3 29.05 A 1.915 1.915 0 0 1 85.83 28.997 Q 85.089 28.809 85.05 27.95 A 43.754 43.754 0 0 0 84.984 27.067 A 50.795 50.795 0 0 0 84.725 24.7 Q 84.5 23 84.225 21.525 A 55.153 55.153 0 0 0 84.213 21.46 Q 83.945 20.03 83.7 19.15 A 24.726 24.726 0 0 0 83.568 18.709 Q 83.277 17.767 82.939 16.95 A 14.287 14.287 0 0 0 82.15 15.325 A 2.934 2.934 0 0 0 80.369 13.904 A 4.173 4.173 0 0 0 79.2 13.75 A 4.68 4.68 0 0 0 78.563 13.792 A 3.301 3.301 0 0 0 76.5 14.85 A 3.713 3.713 0 0 0 75.641 16.499 A 5.275 5.275 0 0 0 75.5 17.75 Q 75.5 18.4 75.675 18.7 A 0.498 0.498 0 0 0 75.734 18.782 Q 75.879 18.943 76.181 19.011 A 1.981 1.981 0 0 0 76.45 19.05 Q 77.3 19.15 77.75 19.45 A 1.971 1.971 0 0 1 77.849 19.521 Q 78.061 19.682 78.249 19.912 A 3.393 3.393 0 0 1 78.55 20.35 A 9.23 9.23 0 0 1 78.675 20.536 Q 79.109 21.196 79.476 21.995 A 15.156 15.156 0 0 1 80.075 23.525 Q 80.7 25.4 81.125 27.4 A 36.68 36.68 0 0 1 81.481 29.313 A 26.756 26.756 0 0 1 81.7 31.05 Q 81.854 32.377 82.294 33.18 A 2.515 2.515 0 0 0 82.95 33.975 Q 83.95 34.75 85 34.75 A 3.851 3.851 0 0 0 85.96 34.623 A 5.278 5.278 0 0 0 86.8 34.325 A 5.841 5.841 0 0 0 87.254 34.097 Q 87.638 33.883 88.046 33.589 A 11.79 11.79 0 0 0 88.85 32.95 Q 87.65 35.2 86.45 36.975 Q 85.625 38.196 84.966 39.026 A 15.109 15.109 0 0 1 84.4 39.7 Q 83.45 40.8 82.325 41.65 A 4.796 4.796 0 0 1 81.646 42.082 A 3.532 3.532 0 0 1 80 42.5 A 3.332 3.332 0 0 1 79.933 42.5 Q 79.613 42.493 79.342 42.425 A 1.766 1.766 0 0 1 78.575 42.025 A 4.755 4.755 0 0 1 78.351 41.809 A 5.258 5.258 0 0 1 77.65 40.9 A 1.558 1.558 0 0 0 77.541 40.742 A 1.774 1.774 0 0 0 77.25 40.45 A 0.628 0.628 0 0 0 77.15 40.385 Q 76.893 40.25 76.4 40.25 A 2.742 2.742 0 0 0 75.105 40.557 A 2.983 2.983 0 0 0 74.225 41.275 A 3.558 3.558 0 0 0 73.576 42.387 A 3.996 3.996 0 0 0 73.35 43.75 A 4.549 4.549 0 0 0 73.352 43.872 Q 73.376 44.781 73.766 45.504 A 3.666 3.666 0 0 0 74.825 46.7 A 5.362 5.362 0 0 0 76.499 47.542 Z M 198.65 47.8 Q 197.15 47.8 196.3 46.975 A 2.268 2.268 0 0 1 195.799 46.211 Q 195.505 45.509 195.459 44.422 A 9.894 9.894 0 0 1 195.45 44 A 16.712 16.712 0 0 1 195.489 42.915 Q 195.562 41.794 195.775 40.35 A 124 124 0 0 1 196.131 38.088 A 146.988 146.988 0 0 1 196.55 35.7 A 145.789 145.789 0 0 0 197.061 32.663 A 167.426 167.426 0 0 0 197.225 31.6 Q 197.55 29.45 197.775 27.375 A 41.977 41.977 0 0 0 197.937 25.523 Q 198 24.527 198 23.65 A 14.321 14.321 0 0 0 197.922 22.11 Q 197.837 21.333 197.663 20.662 A 8.075 8.075 0 0 0 197.575 20.35 A 3.012 3.012 0 0 0 197.157 19.473 A 2.426 2.426 0 0 0 195.85 18.55 Q 195.35 18.35 194.95 18.1 A 0.821 0.821 0 0 1 194.565 17.5 A 1.299 1.299 0 0 1 194.55 17.3 A 2.133 2.133 0 0 1 194.654 16.665 Q 194.738 16.394 194.891 16.105 A 4.714 4.714 0 0 1 195.1 15.75 Q 195.65 14.9 196.675 14.275 A 4.297 4.297 0 0 1 198.679 13.66 A 5.205 5.205 0 0 1 199 13.65 A 3.815 3.815 0 0 1 199.873 13.743 Q 200.883 13.981 201.35 14.825 A 4.717 4.717 0 0 1 201.793 15.986 Q 201.922 16.512 201.971 17.128 A 9.836 9.836 0 0 1 202 17.9 Q 202 18.45 201.95 19.025 Q 201.9 19.6 201.8 20.2 Q 203.25 17.4 205.625 15.475 Q 208 13.55 211 13.55 A 7.157 7.157 0 0 1 213.071 13.835 A 5.506 5.506 0 0 1 215.725 15.575 A 6.877 6.877 0 0 1 217.12 18.304 Q 217.388 19.309 217.439 20.494 A 13.12 13.12 0 0 1 217.45 21.05 Q 217.45 23.6 216.65 26.025 Q 215.85 28.45 214.4 30.4 Q 212.95 32.35 210.925 33.5 A 8.889 8.889 0 0 1 206.865 34.64 A 10.59 10.59 0 0 1 206.4 34.65 A 8.765 8.765 0 0 1 204.818 34.514 A 6.513 6.513 0 0 1 203.25 34.025 Q 201.9 33.4 200.9 32.4 A 39.854 39.854 0 0 0 200.754 33.453 Q 200.634 34.394 200.525 35.55 A 40.554 40.554 0 0 0 200.384 37.552 A 32.382 32.382 0 0 0 200.35 39 A 13.075 13.075 0 0 0 200.392 40.078 Q 200.48 41.142 200.756 41.852 A 3.762 3.762 0 0 0 200.775 41.9 A 2.719 2.719 0 0 0 201.749 43.108 A 3.941 3.941 0 0 0 202.45 43.5 A 1.124 1.124 0 0 1 202.728 43.675 A 0.791 0.791 0 0 1 203 44.3 A 1.236 1.236 0 0 1 202.972 44.545 Q 202.894 44.926 202.6 45.55 A 3.691 3.691 0 0 1 201.984 46.459 Q 201.68 46.794 201.275 47.1 A 3.098 3.098 0 0 1 200.317 47.579 Q 199.606 47.8 198.65 47.8 Z M 247.172 34.378 A 10.981 10.981 0 0 0 249.65 34.65 A 11.338 11.338 0 0 0 251.563 34.495 A 8.453 8.453 0 0 0 254.475 33.45 A 9.988 9.988 0 0 0 255.026 33.099 A 8.265 8.265 0 0 0 257.575 30.375 A 9.035 9.035 0 0 0 258.07 29.377 A 7.126 7.126 0 0 0 258.65 26.6 A 5.518 5.518 0 0 0 258.516 25.339 A 3.223 3.223 0 0 0 256.95 23.175 A 8.365 8.365 0 0 0 255.833 22.646 Q 255.095 22.358 254.202 22.143 A 19.138 19.138 0 0 0 252.35 21.8 A 219.941 219.941 0 0 1 251.819 21.724 A 252.894 252.894 0 0 1 250.15 21.475 A 9.093 9.093 0 0 1 249.815 21.418 Q 248.884 21.241 248.225 20.9 A 2.441 2.441 0 0 1 248.11 20.837 Q 247.914 20.722 247.776 20.588 A 0.997 0.997 0 0 1 247.45 19.85 Q 247.45 19.325 247.971 18.941 A 2.58 2.58 0 0 1 248.375 18.7 A 3.724 3.724 0 0 1 248.954 18.479 Q 249.356 18.361 249.837 18.303 A 8.186 8.186 0 0 1 250.8 18.25 Q 251.8 18.25 252.825 18.525 Q 253.85 18.8 254.7 19.5 A 3.705 3.705 0 0 0 254.859 19.651 Q 255.132 19.893 255.364 19.988 A 0.754 0.754 0 0 0 255.65 20.05 A 1.366 1.366 0 0 0 255.752 20.046 Q 256.113 20.019 256.583 19.805 A 5.32 5.32 0 0 0 257.025 19.575 Q 257.85 19.1 258.475 18.35 Q 259.1 17.6 259.1 16.7 A 1.974 1.974 0 0 0 258.705 15.492 A 2.618 2.618 0 0 0 258.15 14.95 Q 257.2 14.25 255.75 13.9 Q 254.3 13.55 252.75 13.55 Q 249.8 13.55 247.75 14.7 A 9.699 9.699 0 0 0 246.462 15.559 A 7.396 7.396 0 0 0 244.675 17.575 A 8.206 8.206 0 0 0 244.435 18.008 A 6.78 6.78 0 0 0 243.65 21.15 Q 243.65 23.05 244.65 24.025 Q 245.65 25 247.2 25.4 Q 248.75 25.8 250.4 26.1 A 63.578 63.578 0 0 1 251.498 26.27 Q 252.537 26.44 253.227 26.597 A 10.394 10.394 0 0 1 253.825 26.75 A 2.761 2.761 0 0 1 254.138 26.861 Q 254.85 27.167 254.85 27.75 A 1.13 1.13 0 0 1 254.486 28.578 Q 254.308 28.753 254.043 28.903 A 3.745 3.745 0 0 1 253.5 29.15 A 7.759 7.759 0 0 1 251.953 29.54 A 10.471 10.471 0 0 1 250.4 29.65 A 11.251 11.251 0 0 1 250.291 29.65 A 10.067 10.067 0 0 1 247.45 29.225 A 17.625 17.625 0 0 1 246.815 29.02 Q 246.318 28.848 245.895 28.665 A 8.521 8.521 0 0 1 245.15 28.3 A 3.067 3.067 0 0 0 245.122 28.286 Q 244.91 28.183 244.707 28.125 A 1.838 1.838 0 0 0 244.2 28.05 A 1.803 1.803 0 0 0 243.857 28.081 A 1.235 1.235 0 0 0 242.975 28.725 Q 242.6 29.4 242.6 30.15 A 3.89 3.89 0 0 0 242.6 30.194 A 3.27 3.27 0 0 0 243.6 32.55 A 5.9 5.9 0 0 0 244.832 33.486 A 7.812 7.812 0 0 0 246.2 34.1 A 9.711 9.711 0 0 0 247.172 34.378 Z M 8.05 34.65 Q 6.2 34.65 4.65 34.3 Q 3.1 33.95 2.1 33 A 3.807 3.807 0 0 1 1.46 32.232 A 3.163 3.163 0 0 1 1.1 31.425 A 6.45 6.45 0 0 1 0.885 30.263 A 8.047 8.047 0 0 1 0.85 29.5 Q 0.85 27.8 1.15 26.1 A 121.913 121.913 0 0 0 1.674 22.237 A 149.24 149.24 0 0 0 1.95 19.75 A 68.816 68.816 0 0 0 2.233 16.083 A 53.744 53.744 0 0 0 2.3 13.45 A 25.773 25.773 0 0 0 2.286 12.615 Q 2.267 12.047 2.225 11.4 A 27.859 27.859 0 0 0 2.102 10.021 A 22.878 22.878 0 0 0 2 9.25 A 20.013 20.013 0 0 1 1.489 9.461 A 17.484 17.484 0 0 1 1.325 9.525 Q 1.076 9.621 0.871 9.643 A 1.115 1.115 0 0 1 0.75 9.65 A 0.682 0.682 0 0 1 0.498 9.606 Q 0.316 9.535 0.213 9.346 A 0.88 0.88 0 0 1 0.15 9.2 A 2.897 2.897 0 0 1 0.021 8.599 A 3.652 3.652 0 0 1 0 8.2 A 5.196 5.196 0 0 1 0.134 6.993 A 3.95 3.95 0 0 1 0.675 5.725 A 4.244 4.244 0 0 1 1.425 4.879 Q 1.798 4.55 2.281 4.25 A 8.944 8.944 0 0 1 2.9 3.9 Q 4.55 3 7.225 2.325 Q 9.9 1.65 12.65 1.65 A 17.113 17.113 0 0 1 16.776 2.12 A 11.698 11.698 0 0 1 22.475 5.325 Q 25.732 8.674 26.022 14.575 A 23.995 23.995 0 0 1 26.05 15.75 A 22.505 22.505 0 0 1 25.151 22.162 A 21.029 21.029 0 0 1 24.875 23.025 Q 23.7 26.45 21.4 29.075 Q 19.1 31.7 15.75 33.175 A 17.118 17.118 0 0 1 11.296 34.425 A 22.535 22.535 0 0 1 8.05 34.65 Z M 146.486 34.393 A 10.683 10.683 0 0 0 148.9 34.65 Q 153.5 34.65 156.85 31.45 A 16.96 16.96 0 0 0 156.878 31.424 Q 158.205 30.161 158.591 29.245 A 1.8 1.8 0 0 0 158.75 28.55 A 1.466 1.466 0 0 0 158.747 28.458 A 1.098 1.098 0 0 0 158.425 27.725 A 1.071 1.071 0 0 0 158.011 27.465 A 1.259 1.259 0 0 0 157.6 27.4 A 1.39 1.39 0 0 0 157.138 27.484 Q 156.739 27.624 156.3 28 Q 155.2 28.9 153.675 29.425 A 10.439 10.439 0 0 1 152.917 29.655 A 8.745 8.745 0 0 1 150.7 29.95 A 7.225 7.225 0 0 1 149.555 29.863 A 5.237 5.237 0 0 1 146.775 28.55 A 4.663 4.663 0 0 1 145.494 26.601 A 5.758 5.758 0 0 1 145.2 24.85 A 6.345 6.345 0 0 0 145.74 25.194 Q 146.741 25.763 148.005 26.01 A 10.915 10.915 0 0 0 150.1 26.2 A 11.717 11.717 0 0 0 151.003 26.166 A 9.727 9.727 0 0 0 154.55 25.225 A 9.908 9.908 0 0 0 155.156 24.904 A 8.253 8.253 0 0 0 157.75 22.6 Q 158.95 20.95 158.95 19 A 6.315 6.315 0 0 0 158.934 18.548 A 4.747 4.747 0 0 0 157.15 15.075 A 5.735 5.735 0 0 0 156.543 14.641 Q 154.87 13.6 152.35 13.6 Q 149.2 13.6 146.575 15.325 Q 143.95 17.05 142.4 19.95 A 12.779 12.779 0 0 0 141.518 22.021 A 14.059 14.059 0 0 0 140.85 26.4 A 13.851 13.851 0 0 0 140.855 26.784 Q 140.892 28.114 141.187 29.234 A 7.145 7.145 0 0 0 142.975 32.475 A 6.713 6.713 0 0 0 143.338 32.82 Q 144.636 33.964 146.486 34.393 Z M 226.736 34.393 A 10.683 10.683 0 0 0 229.15 34.65 Q 233.75 34.65 237.1 31.45 A 16.96 16.96 0 0 0 237.128 31.424 Q 238.455 30.161 238.841 29.245 A 1.8 1.8 0 0 0 239 28.55 A 1.466 1.466 0 0 0 238.997 28.458 A 1.098 1.098 0 0 0 238.675 27.725 A 1.071 1.071 0 0 0 238.261 27.465 A 1.259 1.259 0 0 0 237.85 27.4 A 1.39 1.39 0 0 0 237.388 27.484 Q 236.989 27.624 236.55 28 Q 235.45 28.9 233.925 29.425 A 10.439 10.439 0 0 1 233.167 29.655 A 8.745 8.745 0 0 1 230.95 29.95 A 7.225 7.225 0 0 1 229.805 29.863 A 5.237 5.237 0 0 1 227.025 28.55 A 4.663 4.663 0 0 1 225.744 26.601 A 5.758 5.758 0 0 1 225.45 24.85 A 6.345 6.345 0 0 0 225.99 25.194 Q 226.991 25.763 228.255 26.01 A 10.915 10.915 0 0 0 230.35 26.2 A 11.717 11.717 0 0 0 231.253 26.166 A 9.727 9.727 0 0 0 234.8 25.225 A 9.908 9.908 0 0 0 235.406 24.904 A 8.253 8.253 0 0 0 238 22.6 Q 239.2 20.95 239.2 19 A 6.315 6.315 0 0 0 239.184 18.548 A 4.747 4.747 0 0 0 237.4 15.075 A 5.735 5.735 0 0 0 236.793 14.641 Q 235.12 13.6 232.6 13.6 Q 229.45 13.6 226.825 15.325 Q 224.2 17.05 222.65 19.95 A 12.779 12.779 0 0 0 221.768 22.021 A 14.059 14.059 0 0 0 221.1 26.4 A 13.851 13.851 0 0 0 221.105 26.784 Q 221.142 28.114 221.437 29.234 A 7.145 7.145 0 0 0 223.225 32.475 A 6.713 6.713 0 0 0 223.588 32.82 Q 224.886 33.964 226.736 34.393 Z M 167.555 34.382 A 9.264 9.264 0 0 0 169.85 34.65 Q 171.95 34.65 174.025 33.925 A 13.767 13.767 0 0 0 174.413 33.783 Q 175.237 33.468 175.92 33.079 A 7.769 7.769 0 0 0 177.35 32.05 A 7.498 7.498 0 0 0 177.695 31.717 Q 178.18 31.215 178.485 30.697 A 3.5 3.5 0 0 0 179 28.9 A 2.691 2.691 0 0 0 178.99 28.665 Q 178.902 27.659 178.016 27.65 A 1.579 1.579 0 0 0 178 27.65 A 1.499 1.499 0 0 0 177.271 27.845 Q 177.057 27.962 176.85 28.15 A 7.635 7.635 0 0 1 176.131 28.614 A 8.636 8.636 0 0 1 174.325 29.375 A 12.796 12.796 0 0 1 174.282 29.388 Q 172.882 29.8 171.7 29.8 A 6.456 6.456 0 0 1 171.003 29.764 A 4.652 4.652 0 0 1 168 28.3 A 5.013 5.013 0 0 1 166.805 26.087 A 6.967 6.967 0 0 1 166.6 24.35 Q 166.6 21.65 168.15 19.975 A 5.041 5.041 0 0 1 170.179 18.621 A 5.835 5.835 0 0 1 172.15 18.3 A 6.968 6.968 0 0 1 172.901 18.338 Q 173.325 18.384 173.676 18.486 A 2.856 2.856 0 0 1 174.4 18.8 Q 175.2 19.3 175.7 19.85 A 1.193 1.193 0 0 0 175.748 19.903 A 0.939 0.939 0 0 0 176.45 20.2 Q 176.75 20.2 177.233 19.989 A 5.823 5.823 0 0 0 177.575 19.825 A 6.714 6.714 0 0 0 177.679 19.77 Q 177.991 19.602 178.25 19.419 A 3.88 3.88 0 0 0 178.75 19 A 5.97 5.97 0 0 0 179.026 18.706 Q 179.382 18.297 179.601 17.883 A 2.825 2.825 0 0 0 179.95 16.55 Q 179.95 15.15 178.55 14.35 Q 177.15 13.55 174.75 13.55 A 14.269 14.269 0 0 0 173.874 13.577 A 11.773 11.773 0 0 0 168.4 15.25 Q 165.6 16.95 164 19.9 A 12.756 12.756 0 0 0 162.899 22.66 A 15.031 15.031 0 0 0 162.4 26.6 Q 162.4 28.263 162.778 29.605 A 6.999 6.999 0 0 0 164.375 32.525 A 6.399 6.399 0 0 0 167.555 34.382 Z M 32.436 34.364 A 7.791 7.791 0 0 0 34.6 34.65 A 9.764 9.764 0 0 0 35.119 34.637 A 7.802 7.802 0 0 0 39.475 33.1 A 11.621 11.621 0 0 0 40.643 32.101 A 12.789 12.789 0 0 0 42.9 29.1 Q 42.9 31.75 43.95 33.175 A 3.331 3.331 0 0 0 45.665 34.416 A 4.263 4.263 0 0 0 46.95 34.6 A 5.506 5.506 0 0 0 47.443 34.579 Q 47.893 34.539 48.266 34.421 A 2.52 2.52 0 0 0 49.175 33.925 A 4.132 4.132 0 0 0 49.581 33.52 A 3.203 3.203 0 0 0 50.225 32.4 Q 50.406 31.842 50.468 31.414 A 2.903 2.903 0 0 0 50.5 31 A 2.691 2.691 0 0 0 50.496 30.844 Q 50.478 30.543 50.39 30.358 A 0.533 0.533 0 0 0 50.225 30.15 A 1.361 1.361 0 0 0 50.105 30.072 Q 49.974 29.997 49.813 29.939 A 2.612 2.612 0 0 0 49.5 29.85 A 3.999 3.999 0 0 1 48.946 29.696 A 2.778 2.778 0 0 1 47.225 28.025 A 8.093 8.093 0 0 1 46.789 26.418 A 10.705 10.705 0 0 1 46.65 24.65 Q 46.65 23.65 46.75 22.65 A 21.611 21.611 0 0 1 46.777 22.399 A 23.681 23.681 0 0 1 47.05 20.6 Q 47.6 20.75 47.8 20.75 A 1.189 1.189 0 0 0 47.873 20.748 A 0.891 0.891 0 0 0 48.525 20.425 Q 48.8 20.1 48.95 19.7 A 4.28 4.28 0 0 0 49.043 19.375 Q 49.133 19.012 49.2 18.525 A 16.967 16.967 0 0 0 49.209 18.462 Q 49.27 18.003 49.29 17.658 A 5.323 5.323 0 0 0 49.3 17.35 A 2.505 2.505 0 0 0 48.949 16.047 Q 48.436 15.183 47.175 14.575 Q 45.05 13.55 42.05 13.55 A 16.222 16.222 0 0 0 40.249 13.648 A 13.051 13.051 0 0 0 36.2 14.75 Q 33.6 15.95 31.75 17.95 Q 29.9 19.95 28.925 22.425 Q 27.95 24.9 27.95 27.4 A 12.411 12.411 0 0 0 27.974 28.172 Q 28.044 29.299 28.325 30.238 A 6.056 6.056 0 0 0 29.775 32.775 A 5.948 5.948 0 0 0 32.436 34.364 Z M 68.886 34.426 A 4.164 4.164 0 0 0 69.7 34.5 A 7.242 7.242 0 0 0 70.367 34.471 Q 70.897 34.422 71.343 34.291 A 3.394 3.394 0 0 0 72.375 33.8 A 6.126 6.126 0 0 0 72.489 33.716 Q 73.374 33.05 73.75 32.25 Q 74.044 31.626 74.122 31.245 A 1.236 1.236 0 0 0 74.15 31 Q 74.15 30.825 74.106 30.694 A 0.549 0.549 0 0 0 73.975 30.475 A 1.182 1.182 0 0 0 73.966 30.466 Q 73.791 30.295 73.45 30.1 Q 72.15 29.35 71.575 28.575 Q 71.153 28.006 71.041 26.911 A 8.479 8.479 0 0 1 71 26.05 A 12.728 12.728 0 0 1 71 25.982 Q 71.003 25.471 71.047 24.901 A 21.072 21.072 0 0 1 71.175 23.7 A 786.816 786.816 0 0 1 71.356 22.363 A 927.387 927.387 0 0 1 71.55 20.95 A 150.789 150.789 0 0 0 71.635 20.318 Q 71.763 19.348 71.896 18.254 A 272.674 272.674 0 0 0 72.175 15.85 A 43.61 43.61 0 0 0 72.31 14.433 Q 72.407 13.204 72.454 11.815 A 82.345 82.345 0 0 0 72.5 9 A 66.119 66.119 0 0 0 72.499 8.657 Q 72.493 7.467 72.444 6.4 A 39.011 39.011 0 0 0 72.3 4.375 A 13.223 13.223 0 0 0 72.157 3.331 Q 72.044 2.701 71.874 2.176 A 5.635 5.635 0 0 0 71.45 1.175 A 2.899 2.899 0 0 0 71.291 0.919 Q 70.649 0 69.5 0 A 3.27 3.27 0 0 0 68.636 0.12 A 4.285 4.285 0 0 0 67.85 0.425 A 5.942 5.942 0 0 0 67.322 0.723 A 4.792 4.792 0 0 0 66.425 1.45 A 2.973 2.973 0 0 0 66.369 1.51 Q 66.179 1.72 66.058 1.936 A 1.55 1.55 0 0 0 65.85 2.7 A 0.928 0.928 0 0 0 65.85 2.716 Q 65.856 3.056 66.109 3.698 A 10.273 10.273 0 0 0 66.3 4.15 A 13.46 13.46 0 0 1 67.318 6.851 A 17.694 17.694 0 0 1 67.825 9.875 A 83.171 83.171 0 0 1 67.904 10.893 A 74.327 74.327 0 0 1 68.1 16.2 A 42.55 42.55 0 0 1 68.086 17.288 A 48.959 48.959 0 0 1 67.875 20.7 A 115.342 115.342 0 0 1 67.758 21.863 A 101.791 101.791 0 0 1 67.35 25.2 Q 67.15 26.95 67 28.45 Q 66.85 29.95 66.85 30.9 A 10.243 10.243 0 0 0 66.86 31.363 Q 66.906 32.373 67.159 33.027 A 2.233 2.233 0 0 0 67.55 33.7 Q 68.037 34.257 68.886 34.426 Z M 9.65 29.05 Q 11.9 29.05 14.15 28.35 Q 16.4 27.65 18.225 26.25 A 10.233 10.233 0 0 0 21.076 22.819 A 11.833 11.833 0 0 0 21.15 22.675 A 9.802 9.802 0 0 0 22.008 20.117 Q 22.25 18.88 22.25 17.45 Q 22.25 14.607 21.333 12.578 A 8.069 8.069 0 0 0 20.9 11.75 Q 19.55 9.5 17.3 8.4 A 10.912 10.912 0 0 0 13.314 7.339 A 13.091 13.091 0 0 0 12.3 7.3 Q 10.8 7.3 9.325 7.55 Q 7.993 7.776 7.17 8.002 A 9.804 9.804 0 0 0 7 8.05 Q 6.95 10.35 6.725 12.525 A 100.936 100.936 0 0 1 6.205 16.718 A 96.134 96.134 0 0 1 6.2 16.75 A 79.097 79.097 0 0 0 5.726 20.934 A 69.601 69.601 0 0 0 5.725 20.95 Q 5.55 23 5.55 25 A 9.499 9.499 0 0 0 5.606 26.077 Q 5.736 27.206 6.162 27.834 A 1.846 1.846 0 0 0 6.575 28.275 A 3.288 3.288 0 0 0 7.532 28.762 Q 8.401 29.05 9.65 29.05 Z M 57.85 34.5 Q 56.35 34.5 55.5 33.675 A 2.358 2.358 0 0 1 54.966 32.851 Q 54.673 32.126 54.652 31.025 A 9.051 9.051 0 0 1 54.65 30.85 Q 54.65 29.7 54.875 28.6 Q 55.1 27.5 55.4 26.45 Q 55.75 25.35 55.975 24.2 A 12.2 12.2 0 0 0 56.182 22.47 A 14.317 14.317 0 0 0 56.2 21.75 Q 56.2 20.85 55.95 20.025 A 1.909 1.909 0 0 0 55.004 18.879 A 2.616 2.616 0 0 0 54.85 18.8 A 8.97 8.97 0 0 1 54.244 18.444 A 6.653 6.653 0 0 1 53.725 18.075 Q 53.25 17.7 53.25 17.1 A 1.764 1.764 0 0 1 53.375 16.469 Q 53.47 16.22 53.637 15.961 A 4.091 4.091 0 0 1 53.9 15.6 A 5.042 5.042 0 0 1 54.85 14.709 A 6.58 6.58 0 0 1 55.625 14.225 A 4.754 4.754 0 0 1 57.315 13.682 A 4.523 4.523 0 0 1 57.85 13.65 A 3.795 3.795 0 0 1 58.525 13.706 Q 59.269 13.841 59.675 14.3 A 3.177 3.177 0 0 1 60.268 15.304 A 4.188 4.188 0 0 1 60.45 15.95 Q 60.65 16.95 60.65 18 Q 60.65 19.6 60.4 21.125 Q 60.15 22.65 59.9 23.95 Q 59.7 24.9 59.6 25.7 A 13.221 13.221 0 0 0 59.517 26.615 A 10.691 10.691 0 0 0 59.5 27.2 A 4.147 4.147 0 0 0 59.556 27.904 Q 59.683 28.641 60.1 29.075 A 4.495 4.495 0 0 0 60.67 29.571 Q 61.147 29.924 61.8 30.25 A 0.948 0.948 0 0 1 62.061 30.457 Q 62.25 30.676 62.25 31 A 1.236 1.236 0 0 1 62.222 31.245 Q 62.144 31.626 61.85 32.25 Q 61.474 33.05 60.589 33.716 A 6.126 6.126 0 0 1 60.475 33.8 Q 59.5 34.5 57.85 34.5 Z M 187.35 34.5 Q 185.85 34.5 185 33.675 A 2.358 2.358 0 0 1 184.466 32.851 Q 184.173 32.126 184.152 31.025 A 9.051 9.051 0 0 1 184.15 30.85 Q 184.15 29.7 184.375 28.6 Q 184.6 27.5 184.9 26.45 Q 185.25 25.35 185.475 24.2 A 12.2 12.2 0 0 0 185.682 22.47 A 14.317 14.317 0 0 0 185.7 21.75 Q 185.7 20.85 185.45 20.025 A 1.909 1.909 0 0 0 184.504 18.879 A 2.616 2.616 0 0 0 184.35 18.8 A 8.97 8.97 0 0 1 183.744 18.444 A 6.653 6.653 0 0 1 183.225 18.075 Q 182.75 17.7 182.75 17.1 A 1.764 1.764 0 0 1 182.875 16.469 Q 182.97 16.22 183.137 15.961 A 4.091 4.091 0 0 1 183.4 15.6 A 5.042 5.042 0 0 1 184.35 14.709 A 6.58 6.58 0 0 1 185.125 14.225 A 4.754 4.754 0 0 1 186.815 13.682 A 4.523 4.523 0 0 1 187.35 13.65 A 3.795 3.795 0 0 1 188.025 13.706 Q 188.769 13.841 189.175 14.3 A 3.177 3.177 0 0 1 189.768 15.304 A 4.188 4.188 0 0 1 189.95 15.95 Q 190.15 16.95 190.15 18 Q 190.15 19.6 189.9 21.125 Q 189.65 22.65 189.4 23.95 Q 189.2 24.9 189.1 25.7 A 13.221 13.221 0 0 0 189.017 26.615 A 10.691 10.691 0 0 0 189 27.2 A 4.147 4.147 0 0 0 189.056 27.904 Q 189.183 28.641 189.6 29.075 A 4.495 4.495 0 0 0 190.17 29.571 Q 190.647 29.924 191.3 30.25 A 0.948 0.948 0 0 1 191.561 30.457 Q 191.75 30.676 191.75 31 A 1.236 1.236 0 0 1 191.722 31.245 Q 191.644 31.626 191.35 32.25 Q 190.974 33.05 190.089 33.716 A 6.126 6.126 0 0 1 189.975 33.8 Q 189 34.5 187.35 34.5 Z M 36.2 29.45 Q 38.2 29.45 39.725 28.2 A 8.465 8.465 0 0 0 42.073 25.109 A 9.792 9.792 0 0 0 42.1 25.05 A 11.969 11.969 0 0 0 42.784 23.124 A 13.966 13.966 0 0 0 42.95 22.425 Q 43.25 21 43.35 19.6 A 8.449 8.449 0 0 0 42.33 19.203 A 11.14 11.14 0 0 0 41.4 18.95 A 10.284 10.284 0 0 0 39.254 18.701 A 11.426 11.426 0 0 0 39.1 18.7 A 8.463 8.463 0 0 0 36.728 19.018 A 6.637 6.637 0 0 0 34.075 20.5 A 5.806 5.806 0 0 0 32.106 24.708 A 7.187 7.187 0 0 0 32.1 25 A 5.922 5.922 0 0 0 32.255 26.391 A 4.152 4.152 0 0 0 33.2 28.225 A 3.62 3.62 0 0 0 35.434 29.396 A 5.187 5.187 0 0 0 36.2 29.45 Z M 207.55 29.25 A 7.232 7.232 0 0 0 209.356 29.038 A 4.969 4.969 0 0 0 211.95 27.45 Q 213.5 25.65 213.5 23.3 Q 213.5 21.25 212.4 20.125 A 3.665 3.665 0 0 0 210.354 19.075 A 5.24 5.24 0 0 0 209.45 19 Q 207.55 19 206.1 20.125 A 9.241 9.241 0 0 0 204.235 22.091 A 11.336 11.336 0 0 0 203.625 23.05 Q 202.6 24.85 201.95 26.9 A 9.114 9.114 0 0 0 204.252 28.507 A 7.544 7.544 0 0 0 207.55 29.25 Z M 56.793 8.997 A 4.162 4.162 0 0 0 57.8 9.15 A 4.53 4.53 0 0 0 58.571 9.087 A 3.165 3.165 0 0 0 60.35 8.175 A 3.393 3.393 0 0 0 61.12 6.952 A 4.046 4.046 0 0 0 61.35 5.7 A 4.747 4.747 0 0 0 61.353 5.537 Q 61.353 4.205 60.575 3.45 A 2.695 2.695 0 0 0 60.385 3.283 Q 59.91 2.901 59.257 2.732 A 4.415 4.415 0 0 0 58.3 2.6 Q 58.075 2.593 57.861 2.607 A 3.234 3.234 0 0 0 55.75 3.525 A 3.34 3.34 0 0 0 54.922 4.814 A 4.067 4.067 0 0 0 54.7 6.05 Q 54.7 7.5 55.55 8.3 A 2.993 2.993 0 0 0 56.793 8.997 Z M 186.293 8.997 A 4.162 4.162 0 0 0 187.3 9.15 A 4.53 4.53 0 0 0 188.071 9.087 A 3.165 3.165 0 0 0 189.85 8.175 A 3.393 3.393 0 0 0 190.62 6.952 A 4.046 4.046 0 0 0 190.85 5.7 A 4.747 4.747 0 0 0 190.853 5.537 Q 190.853 4.205 190.075 3.45 A 2.695 2.695 0 0 0 189.885 3.283 Q 189.41 2.901 188.757 2.732 A 4.415 4.415 0 0 0 187.8 2.6 Q 187.575 2.593 187.361 2.607 A 3.234 3.234 0 0 0 185.25 3.525 A 3.34 3.34 0 0 0 184.422 4.814 A 4.067 4.067 0 0 0 184.2 6.05 Q 184.2 7.5 185.05 8.3 A 2.993 2.993 0 0 0 186.293 8.997 Z M 149.65 22.9 A 7.149 7.149 0 0 0 150.965 22.786 Q 151.919 22.607 152.65 22.15 A 3.217 3.217 0 0 0 153.257 21.67 A 1.975 1.975 0 0 0 153.85 20.25 A 1.791 1.791 0 0 0 153.708 19.524 Q 153.537 19.134 153.162 18.853 A 2.197 2.197 0 0 0 153.05 18.775 A 2.858 2.858 0 0 0 152.268 18.426 Q 151.659 18.25 150.85 18.25 A 5.909 5.909 0 0 0 149.025 18.523 A 5.132 5.132 0 0 0 147.625 19.225 A 5.235 5.235 0 0 0 145.834 21.473 A 6.594 6.594 0 0 0 145.65 21.95 A 4.353 4.353 0 0 0 146.339 22.306 Q 146.831 22.51 147.45 22.65 Q 148.55 22.9 149.65 22.9 Z M 229.9 22.9 A 7.149 7.149 0 0 0 231.215 22.786 Q 232.169 22.607 232.9 22.15 A 3.217 3.217 0 0 0 233.507 21.67 A 1.975 1.975 0 0 0 234.1 20.25 A 1.791 1.791 0 0 0 233.958 19.524 Q 233.787 19.134 233.412 18.853 A 2.197 2.197 0 0 0 233.3 18.775 A 2.858 2.858 0 0 0 232.518 18.426 Q 231.909 18.25 231.1 18.25 A 5.909 5.909 0 0 0 229.275 18.523 A 5.132 5.132 0 0 0 227.875 19.225 A 5.235 5.235 0 0 0 226.084 21.473 A 6.594 6.594 0 0 0 225.9 21.95 A 4.353 4.353 0 0 0 226.589 22.306 Q 227.081 22.51 227.7 22.65 Q 228.8 22.9 229.9 22.9 Z" vector-effect="non-scaling-stroke"/></g></svg>